<?xml version="1.0" encoding="UTF-8" standalone="no"?>
<svg
   xmlns:dc="http://purl.org/dc/elements/1.1/"
   xmlns:cc="http://creativecommons.org/ns#"
   xmlns:rdf="http://www.w3.org/1999/02/22-rdf-syntax-ns#"
   xmlns:svg="http://www.w3.org/2000/svg"
   xmlns="http://www.w3.org/2000/svg"
   xmlns:sodipodi="http://sodipodi.sourceforge.net/DTD/sodipodi-0.dtd"
   xmlns:inkscape="http://www.inkscape.org/namespaces/inkscape"
   version="1.0"
   x="0px"
   y="0px"
   viewBox="-20 -57 110 110"
   enable-background="new 0 0 100 100"
   xml:space="preserve"
   id="svg14"
   sodipodi:docname="toolbar-book.svg"
   width="55"
   height="55"
   inkscape:version="0.92.1 r15371"><metadata
     id="metadata20"><rdf:RDF><cc:Work
         rdf:about=""><dc:format>image/svg+xml</dc:format><dc:type
           rdf:resource="http://purl.org/dc/dcmitype/StillImage" /><dc:title></dc:title></cc:Work></rdf:RDF></metadata><defs
     id="defs18" /><sodipodi:namedview
     pagecolor="#ffffff"
     bordercolor="#666666"
     borderopacity="1"
     objecttolerance="10"
     gridtolerance="10"
     guidetolerance="10"
     inkscape:pageopacity="0"
     inkscape:pageshadow="2"
     inkscape:window-width="852"
     inkscape:window-height="480"
     id="namedview16"
     showgrid="false"
     scale-x="1.4"
     viewbox-y="-57"
     viewbox-x="-20"
     showguides="false"
     inkscape:zoom="1.888"
     inkscape:cx="33.448524"
     inkscape:cy="32.056602"
     inkscape:window-x="90"
     inkscape:window-y="258"
     inkscape:window-maximized="0"
     inkscape:current-layer="svg14" /><path
     d="M 60.821178,0.5591282 C 67.16663,-4.2490148 71.315739,-11.252266 71.681904,-19.091629 72.413906,-34.665918 58.13673,-47.836135 39.832386,-48.358759 22.38232,-48.776859 7.616701,-37.069992 6.762424,-22.122852 c -0.121946,2.195023 0,4.390045 0.488112,6.480541 0.244221,0.940724 0,1.985974 -0.610058,2.822174 -1.586279,2.508595 -5.003387,7.8394472 -6.46739398,12.2294922 -0.976223,3.03122 2.19633698,3.135746 9.02989798,3.344796 l 0.73233,9.6163708 c 0.121946,6.898643 4.148785,9.929863 12.690897,8.989136 l 2.44056,-0.104523 c 1.342388,-0.104523 2.440555,0.836197 2.318611,1.985977 l 5.394207,17.938995 31.63882,-11.443832 c 0,0 -5.793564,-13.393806 -6.281677,-18.411003 C 56.566883,4.3580172 60.821178,0.5591282 60.821178,0.5591282 Z m -4.783165,-5.636536 c -10.063312,8.798169 -16.869262,-0.400268 -16.869262,-0.400268 -1.486687,0.972114 -3.488106,0.743343 -5.203564,0.514652 -1.944229,-0.228771 -3.888458,-0.972114 -5.089176,-2.573265 -0.629124,-0.857731 -0.972279,-1.829845 -1.086666,-2.8591502 -5.089508,2.0014192 -12.408877,0.5718462 -14.753456,-4.746269 -1.77265,-3.945648 -1.029143,-11.43668 3.259664,-13.723984 0.343157,-2.516157 1.029143,-4.746267 3.144949,-6.404613 2.115807,-1.601155 4.689156,-2.516075 7.376564,-2.344497 3.660015,-4.231614 10.807808,-4.746267 15.782601,-2.630461 2.744926,-1.315189 5.60424,-1.143693 8.463226,0.114386 3.202469,1.372382 5.318275,3.087922 6.404617,5.889878 5.203888,2.173001 7.60566,7.319453 6.97654,12.980723 -0.228775,2.17292 -0.686318,4.288726 -1.944229,5.947071 0.400024,4.688995 -2.287384,8.6918372 -6.461808,10.2357972 z"
     id="path2"
     inkscape:connector-curvature="0"
     style="fill:#ffffff" /><polygon
     points="67.217217,36.488586 64.091454,33.69532 61.58992,35.495876 64.715508,38.289047 65.02639,36.548183 "
     id="polygon4"
     transform="translate(-14.818615,-53.376495)"
     style="fill:#ffffff" /><polygon
     points="65.629028,33.94426 66.974136,35.146236 69.23941,33.525475 67.894501,32.323791 "
     id="polygon6"
     transform="translate(-14.818615,-53.376495)"
     style="fill:#ffffff" /><path
     d="m 41.153305,-12.458999 -0.229229,0.159057 c -0.06782,0.04697 -0.140961,0.07293 -0.2173,0.07293 -0.349545,0 -0.632763,-0.540402 -0.632763,-1.206982 0,-0.511535 0.166897,-0.948887 0.402759,-1.124492 l 13.48272,-9.6987 -13.543518,-12.103219 -13.635025,9.813702 c 0,0 -2.421955,2.328739 0,4.886705 l 11.451786,10.23181 c 1.318954,1.178867 2.889877,1.132931 4.078312,0.277454 l 5.946788,-4.274406 -1.344814,-1.202072 z"
     id="path8"
     inkscape:connector-curvature="0"
     style="fill:#ffffff" /></svg>